<mxfile host="app.diagrams.net" modified="2024-07-25T22:19:41.534Z" agent="Mozilla/5.0 (Windows NT 10.0; Win64; x64) AppleWebKit/537.36 (KHTML, like Gecko) Chrome/126.0.0.0 Safari/537.36 Edg/126.0.0.0" etag="etCulS9sz4INXj7FuWBc" version="24.7.1" type="device">
  <diagram name="Page-1" id="-BCH_65vqCH1y5DzWuhc">
    <mxGraphModel dx="1621" dy="412" grid="1" gridSize="10" guides="1" tooltips="1" connect="1" arrows="1" fold="1" page="1" pageScale="1" pageWidth="850" pageHeight="1100" math="0" shadow="0">
      <root>
        <mxCell id="0" />
        <mxCell id="1" parent="0" />
        <mxCell id="OIP5oiSbWWPdo0reav5E-95" style="edgeStyle=orthogonalEdgeStyle;rounded=0;orthogonalLoop=1;jettySize=auto;html=1;exitX=0.75;exitY=0;exitDx=0;exitDy=0;" edge="1" parent="1" source="OIP5oiSbWWPdo0reav5E-1" target="OIP5oiSbWWPdo0reav5E-94">
          <mxGeometry relative="1" as="geometry" />
        </mxCell>
        <mxCell id="OIP5oiSbWWPdo0reav5E-110" value="&lt;font style=&quot;font-size: 14px;&quot;&gt;(1,M)&lt;/font&gt;" style="edgeLabel;html=1;align=center;verticalAlign=middle;resizable=0;points=[];" vertex="1" connectable="0" parent="OIP5oiSbWWPdo0reav5E-95">
          <mxGeometry x="-0.3157" y="1" relative="1" as="geometry">
            <mxPoint as="offset" />
          </mxGeometry>
        </mxCell>
        <mxCell id="OIP5oiSbWWPdo0reav5E-105" style="edgeStyle=orthogonalEdgeStyle;rounded=0;orthogonalLoop=1;jettySize=auto;html=1;exitX=1;exitY=0.5;exitDx=0;exitDy=0;entryX=0.5;entryY=1;entryDx=0;entryDy=0;" edge="1" parent="1" source="OIP5oiSbWWPdo0reav5E-1" target="OIP5oiSbWWPdo0reav5E-70">
          <mxGeometry relative="1" as="geometry">
            <mxPoint x="200" y="450" as="targetPoint" />
          </mxGeometry>
        </mxCell>
        <mxCell id="OIP5oiSbWWPdo0reav5E-106" value="&lt;font style=&quot;font-size: 14px;&quot;&gt;(1,1)&lt;/font&gt;" style="edgeLabel;html=1;align=center;verticalAlign=middle;resizable=0;points=[];" vertex="1" connectable="0" parent="OIP5oiSbWWPdo0reav5E-105">
          <mxGeometry x="-0.9044" relative="1" as="geometry">
            <mxPoint as="offset" />
          </mxGeometry>
        </mxCell>
        <mxCell id="OIP5oiSbWWPdo0reav5E-1" value="TEACHER" style="whiteSpace=wrap;html=1;align=center;fillColor=#d5e8d4;strokeColor=#82b366;" vertex="1" parent="1">
          <mxGeometry x="-320" y="410" width="100" height="40" as="geometry" />
        </mxCell>
        <mxCell id="OIP5oiSbWWPdo0reav5E-58" style="edgeStyle=orthogonalEdgeStyle;rounded=0;orthogonalLoop=1;jettySize=auto;html=1;exitX=1;exitY=0.5;exitDx=0;exitDy=0;entryX=0;entryY=0.5;entryDx=0;entryDy=0;" edge="1" parent="1" source="OIP5oiSbWWPdo0reav5E-2" target="OIP5oiSbWWPdo0reav5E-57">
          <mxGeometry relative="1" as="geometry" />
        </mxCell>
        <mxCell id="OIP5oiSbWWPdo0reav5E-100" value="&lt;font style=&quot;font-size: 14px;&quot;&gt;(1,1)&lt;/font&gt;" style="edgeLabel;html=1;align=center;verticalAlign=middle;resizable=0;points=[];" vertex="1" connectable="0" parent="OIP5oiSbWWPdo0reav5E-58">
          <mxGeometry x="-0.8586" y="3" relative="1" as="geometry">
            <mxPoint as="offset" />
          </mxGeometry>
        </mxCell>
        <mxCell id="OIP5oiSbWWPdo0reav5E-61" style="edgeStyle=orthogonalEdgeStyle;rounded=0;orthogonalLoop=1;jettySize=auto;html=1;exitX=0.5;exitY=0;exitDx=0;exitDy=0;entryX=1;entryY=0.5;entryDx=0;entryDy=0;" edge="1" parent="1" source="OIP5oiSbWWPdo0reav5E-2" target="OIP5oiSbWWPdo0reav5E-60">
          <mxGeometry relative="1" as="geometry" />
        </mxCell>
        <mxCell id="OIP5oiSbWWPdo0reav5E-99" value="&lt;font style=&quot;font-size: 14px;&quot;&gt;(0,M)&lt;/font&gt;" style="edgeLabel;html=1;align=center;verticalAlign=middle;resizable=0;points=[];" vertex="1" connectable="0" parent="OIP5oiSbWWPdo0reav5E-61">
          <mxGeometry x="-0.8507" relative="1" as="geometry">
            <mxPoint as="offset" />
          </mxGeometry>
        </mxCell>
        <mxCell id="OIP5oiSbWWPdo0reav5E-2" value="STUDENT" style="whiteSpace=wrap;html=1;align=center;fillColor=#d5e8d4;strokeColor=#82b366;" vertex="1" parent="1">
          <mxGeometry x="120" y="620" width="100" height="40" as="geometry" />
        </mxCell>
        <mxCell id="OIP5oiSbWWPdo0reav5E-3" value="PROJECT" style="whiteSpace=wrap;html=1;align=center;fillColor=#d5e8d4;strokeColor=#82b366;" vertex="1" parent="1">
          <mxGeometry x="460" y="350" width="100" height="40" as="geometry" />
        </mxCell>
        <mxCell id="OIP5oiSbWWPdo0reav5E-4" value="COURSE" style="whiteSpace=wrap;html=1;align=center;fillColor=#d5e8d4;strokeColor=#82b366;" vertex="1" parent="1">
          <mxGeometry x="-230" y="230" width="100" height="40" as="geometry" />
        </mxCell>
        <mxCell id="OIP5oiSbWWPdo0reav5E-88" style="edgeStyle=orthogonalEdgeStyle;rounded=0;orthogonalLoop=1;jettySize=auto;html=1;exitX=0.5;exitY=0;exitDx=0;exitDy=0;entryX=0.5;entryY=1;entryDx=0;entryDy=0;" edge="1" parent="1" source="OIP5oiSbWWPdo0reav5E-7" target="OIP5oiSbWWPdo0reav5E-86">
          <mxGeometry relative="1" as="geometry" />
        </mxCell>
        <mxCell id="OIP5oiSbWWPdo0reav5E-90" value="&lt;span style=&quot;font-size: 14px;&quot;&gt;(1,1)&lt;/span&gt;" style="edgeLabel;html=1;align=center;verticalAlign=middle;resizable=0;points=[];" vertex="1" connectable="0" parent="OIP5oiSbWWPdo0reav5E-88">
          <mxGeometry x="-0.3415" y="1" relative="1" as="geometry">
            <mxPoint as="offset" />
          </mxGeometry>
        </mxCell>
        <mxCell id="OIP5oiSbWWPdo0reav5E-114" style="edgeStyle=orthogonalEdgeStyle;rounded=0;orthogonalLoop=1;jettySize=auto;html=1;exitX=0;exitY=0;exitDx=0;exitDy=0;entryX=1;entryY=0.5;entryDx=0;entryDy=0;" edge="1" parent="1" source="OIP5oiSbWWPdo0reav5E-7" target="OIP5oiSbWWPdo0reav5E-112">
          <mxGeometry relative="1" as="geometry" />
        </mxCell>
        <mxCell id="OIP5oiSbWWPdo0reav5E-121" value="&lt;span style=&quot;font-size: 14px;&quot;&gt;(1,1)&lt;/span&gt;" style="edgeLabel;html=1;align=center;verticalAlign=middle;resizable=0;points=[];" vertex="1" connectable="0" parent="OIP5oiSbWWPdo0reav5E-114">
          <mxGeometry x="-0.7121" y="-1" relative="1" as="geometry">
            <mxPoint as="offset" />
          </mxGeometry>
        </mxCell>
        <mxCell id="OIP5oiSbWWPdo0reav5E-7" value="CREDENTIAL" style="rounded=1;arcSize=10;whiteSpace=wrap;html=1;align=center;fillColor=#e1d5e7;strokeColor=#9673a6;" vertex="1" parent="1">
          <mxGeometry x="-320" y="670" width="100" height="50" as="geometry" />
        </mxCell>
        <mxCell id="OIP5oiSbWWPdo0reav5E-15" value="&lt;span style=&quot;border-bottom: 1px dotted&quot;&gt;username&lt;/span&gt;" style="ellipse;whiteSpace=wrap;html=1;align=center;" vertex="1" parent="1">
          <mxGeometry x="-390" y="760" width="100" height="40" as="geometry" />
        </mxCell>
        <mxCell id="OIP5oiSbWWPdo0reav5E-29" style="edgeStyle=orthogonalEdgeStyle;rounded=0;orthogonalLoop=1;jettySize=auto;html=1;exitX=0.5;exitY=0;exitDx=0;exitDy=0;entryX=0.5;entryY=1;entryDx=0;entryDy=0;" edge="1" parent="1" source="OIP5oiSbWWPdo0reav5E-17" target="OIP5oiSbWWPdo0reav5E-7">
          <mxGeometry relative="1" as="geometry" />
        </mxCell>
        <mxCell id="OIP5oiSbWWPdo0reav5E-17" value="&lt;span style=&quot;border-bottom: 1px dotted&quot;&gt;password&lt;/span&gt;" style="ellipse;whiteSpace=wrap;html=1;align=center;" vertex="1" parent="1">
          <mxGeometry x="-290" y="760" width="100" height="40" as="geometry" />
        </mxCell>
        <mxCell id="OIP5oiSbWWPdo0reav5E-32" style="edgeStyle=orthogonalEdgeStyle;rounded=0;orthogonalLoop=1;jettySize=auto;html=1;exitX=1;exitY=0.5;exitDx=0;exitDy=0;" edge="1" parent="1" source="OIP5oiSbWWPdo0reav5E-27" target="OIP5oiSbWWPdo0reav5E-1">
          <mxGeometry relative="1" as="geometry" />
        </mxCell>
        <mxCell id="OIP5oiSbWWPdo0reav5E-27" value="&lt;u&gt;id&lt;/u&gt;" style="ellipse;whiteSpace=wrap;html=1;align=center;fillColor=#dae8fc;strokeColor=#6c8ebf;fontStyle=1" vertex="1" parent="1">
          <mxGeometry x="-460" y="440" width="100" height="40" as="geometry" />
        </mxCell>
        <mxCell id="OIP5oiSbWWPdo0reav5E-28" style="edgeStyle=orthogonalEdgeStyle;rounded=0;orthogonalLoop=1;jettySize=auto;html=1;exitX=0.5;exitY=0;exitDx=0;exitDy=0;entryX=0.391;entryY=0.957;entryDx=0;entryDy=0;entryPerimeter=0;" edge="1" parent="1" source="OIP5oiSbWWPdo0reav5E-15" target="OIP5oiSbWWPdo0reav5E-7">
          <mxGeometry relative="1" as="geometry" />
        </mxCell>
        <mxCell id="OIP5oiSbWWPdo0reav5E-31" value="" style="edgeStyle=orthogonalEdgeStyle;rounded=0;orthogonalLoop=1;jettySize=auto;html=1;" edge="1" parent="1" source="OIP5oiSbWWPdo0reav5E-30" target="OIP5oiSbWWPdo0reav5E-7">
          <mxGeometry relative="1" as="geometry" />
        </mxCell>
        <mxCell id="OIP5oiSbWWPdo0reav5E-30" value="&lt;u&gt;id&lt;/u&gt;" style="ellipse;whiteSpace=wrap;html=1;align=center;fillColor=#dae8fc;strokeColor=#6c8ebf;fontStyle=1" vertex="1" parent="1">
          <mxGeometry x="-470" y="685" width="100" height="40" as="geometry" />
        </mxCell>
        <mxCell id="OIP5oiSbWWPdo0reav5E-35" style="edgeStyle=orthogonalEdgeStyle;rounded=0;orthogonalLoop=1;jettySize=auto;html=1;exitX=1;exitY=0.5;exitDx=0;exitDy=0;" edge="1" parent="1" source="OIP5oiSbWWPdo0reav5E-34" target="OIP5oiSbWWPdo0reav5E-4">
          <mxGeometry relative="1" as="geometry" />
        </mxCell>
        <mxCell id="OIP5oiSbWWPdo0reav5E-34" value="&lt;u&gt;id&lt;/u&gt;" style="ellipse;whiteSpace=wrap;html=1;align=center;fillColor=#dae8fc;strokeColor=#6c8ebf;fontStyle=1" vertex="1" parent="1">
          <mxGeometry x="-370" y="220" width="100" height="40" as="geometry" />
        </mxCell>
        <mxCell id="OIP5oiSbWWPdo0reav5E-40" style="edgeStyle=orthogonalEdgeStyle;rounded=0;orthogonalLoop=1;jettySize=auto;html=1;exitX=0.5;exitY=0;exitDx=0;exitDy=0;" edge="1" parent="1" source="OIP5oiSbWWPdo0reav5E-39" target="OIP5oiSbWWPdo0reav5E-3">
          <mxGeometry relative="1" as="geometry" />
        </mxCell>
        <mxCell id="OIP5oiSbWWPdo0reav5E-39" value="&lt;u&gt;id&lt;/u&gt;" style="ellipse;whiteSpace=wrap;html=1;align=center;fillColor=#dae8fc;strokeColor=#6c8ebf;fontStyle=1" vertex="1" parent="1">
          <mxGeometry x="520" y="420" width="100" height="40" as="geometry" />
        </mxCell>
        <mxCell id="OIP5oiSbWWPdo0reav5E-44" value="&lt;b&gt;id&lt;/b&gt;" style="ellipse;whiteSpace=wrap;html=1;align=center;fontStyle=4;fillColor=#dae8fc;strokeColor=#6c8ebf;" vertex="1" parent="1">
          <mxGeometry x="140" y="680" width="100" height="40" as="geometry" />
        </mxCell>
        <mxCell id="OIP5oiSbWWPdo0reav5E-45" style="edgeStyle=orthogonalEdgeStyle;rounded=0;orthogonalLoop=1;jettySize=auto;html=1;exitX=0.5;exitY=0;exitDx=0;exitDy=0;entryX=0.696;entryY=0.997;entryDx=0;entryDy=0;entryPerimeter=0;" edge="1" parent="1" source="OIP5oiSbWWPdo0reav5E-44" target="OIP5oiSbWWPdo0reav5E-2">
          <mxGeometry relative="1" as="geometry" />
        </mxCell>
        <mxCell id="OIP5oiSbWWPdo0reav5E-87" style="edgeStyle=orthogonalEdgeStyle;rounded=0;orthogonalLoop=1;jettySize=auto;html=1;exitX=0.5;exitY=1;exitDx=0;exitDy=0;entryX=0;entryY=0.25;entryDx=0;entryDy=0;" edge="1" parent="1" source="OIP5oiSbWWPdo0reav5E-48" target="OIP5oiSbWWPdo0reav5E-1">
          <mxGeometry relative="1" as="geometry" />
        </mxCell>
        <mxCell id="OIP5oiSbWWPdo0reav5E-48" value="name" style="ellipse;whiteSpace=wrap;html=1;align=center;" vertex="1" parent="1">
          <mxGeometry x="-450" y="350" width="100" height="40" as="geometry" />
        </mxCell>
        <mxCell id="OIP5oiSbWWPdo0reav5E-81" style="edgeStyle=orthogonalEdgeStyle;rounded=0;orthogonalLoop=1;jettySize=auto;html=1;exitX=0.5;exitY=0;exitDx=0;exitDy=0;entryX=1;entryY=0.75;entryDx=0;entryDy=0;" edge="1" parent="1" source="OIP5oiSbWWPdo0reav5E-51" target="OIP5oiSbWWPdo0reav5E-2">
          <mxGeometry relative="1" as="geometry" />
        </mxCell>
        <mxCell id="OIP5oiSbWWPdo0reav5E-51" value="name" style="ellipse;whiteSpace=wrap;html=1;align=center;" vertex="1" parent="1">
          <mxGeometry x="210" y="730" width="100" height="40" as="geometry" />
        </mxCell>
        <mxCell id="OIP5oiSbWWPdo0reav5E-69" style="edgeStyle=orthogonalEdgeStyle;rounded=0;orthogonalLoop=1;jettySize=auto;html=1;exitX=0;exitY=1;exitDx=0;exitDy=0;entryX=1;entryY=0.25;entryDx=0;entryDy=0;" edge="1" parent="1" source="OIP5oiSbWWPdo0reav5E-54" target="OIP5oiSbWWPdo0reav5E-3">
          <mxGeometry relative="1" as="geometry" />
        </mxCell>
        <mxCell id="OIP5oiSbWWPdo0reav5E-54" value="title" style="ellipse;whiteSpace=wrap;html=1;align=center;" vertex="1" parent="1">
          <mxGeometry x="570" y="310" width="100" height="40" as="geometry" />
        </mxCell>
        <mxCell id="OIP5oiSbWWPdo0reav5E-55" value="objectives" style="ellipse;whiteSpace=wrap;html=1;align=center;dashed=1;" vertex="1" parent="1">
          <mxGeometry x="480" y="280" width="100" height="40" as="geometry" />
        </mxCell>
        <mxCell id="OIP5oiSbWWPdo0reav5E-56" style="edgeStyle=orthogonalEdgeStyle;rounded=0;orthogonalLoop=1;jettySize=auto;html=1;exitX=0.5;exitY=1;exitDx=0;exitDy=0;entryX=0.642;entryY=0.052;entryDx=0;entryDy=0;entryPerimeter=0;" edge="1" parent="1" source="OIP5oiSbWWPdo0reav5E-55" target="OIP5oiSbWWPdo0reav5E-3">
          <mxGeometry relative="1" as="geometry" />
        </mxCell>
        <mxCell id="OIP5oiSbWWPdo0reav5E-59" style="edgeStyle=orthogonalEdgeStyle;rounded=0;orthogonalLoop=1;jettySize=auto;html=1;exitX=1;exitY=0.5;exitDx=0;exitDy=0;entryX=1;entryY=0.5;entryDx=0;entryDy=0;" edge="1" parent="1" source="OIP5oiSbWWPdo0reav5E-57" target="OIP5oiSbWWPdo0reav5E-3">
          <mxGeometry relative="1" as="geometry" />
        </mxCell>
        <mxCell id="OIP5oiSbWWPdo0reav5E-101" value="&lt;font style=&quot;font-size: 14px;&quot;&gt;(0,M)&lt;/font&gt;" style="edgeLabel;html=1;align=center;verticalAlign=middle;resizable=0;points=[];" vertex="1" connectable="0" parent="OIP5oiSbWWPdo0reav5E-59">
          <mxGeometry x="0.8016" y="-2" relative="1" as="geometry">
            <mxPoint as="offset" />
          </mxGeometry>
        </mxCell>
        <mxCell id="OIP5oiSbWWPdo0reav5E-57" value="submits" style="shape=rhombus;perimeter=rhombusPerimeter;whiteSpace=wrap;html=1;align=center;fillColor=#ffe6cc;strokeColor=#d79b00;" vertex="1" parent="1">
          <mxGeometry x="510" y="520" width="120" height="60" as="geometry" />
        </mxCell>
        <mxCell id="OIP5oiSbWWPdo0reav5E-62" style="edgeStyle=orthogonalEdgeStyle;rounded=0;orthogonalLoop=1;jettySize=auto;html=1;exitX=0;exitY=0.5;exitDx=0;exitDy=0;entryX=1;entryY=0.5;entryDx=0;entryDy=0;" edge="1" parent="1" source="OIP5oiSbWWPdo0reav5E-60" target="OIP5oiSbWWPdo0reav5E-4">
          <mxGeometry relative="1" as="geometry" />
        </mxCell>
        <mxCell id="OIP5oiSbWWPdo0reav5E-98" value="&lt;span style=&quot;font-size: 13px;&quot;&gt;(1,1)&lt;/span&gt;" style="edgeLabel;html=1;align=center;verticalAlign=middle;resizable=0;points=[];" vertex="1" connectable="0" parent="OIP5oiSbWWPdo0reav5E-62">
          <mxGeometry x="0.6865" y="3" relative="1" as="geometry">
            <mxPoint as="offset" />
          </mxGeometry>
        </mxCell>
        <mxCell id="OIP5oiSbWWPdo0reav5E-60" value="takes" style="shape=rhombus;perimeter=rhombusPerimeter;whiteSpace=wrap;html=1;align=center;fillColor=#ffe6cc;strokeColor=#d79b00;" vertex="1" parent="1">
          <mxGeometry y="330" width="120" height="60" as="geometry" />
        </mxCell>
        <mxCell id="OIP5oiSbWWPdo0reav5E-65" style="edgeStyle=orthogonalEdgeStyle;rounded=0;orthogonalLoop=1;jettySize=auto;html=1;exitX=0.5;exitY=1;exitDx=0;exitDy=0;" edge="1" parent="1" source="OIP5oiSbWWPdo0reav5E-64" target="OIP5oiSbWWPdo0reav5E-55">
          <mxGeometry relative="1" as="geometry">
            <Array as="points">
              <mxPoint x="540" y="280" />
              <mxPoint x="540" y="280" />
            </Array>
          </mxGeometry>
        </mxCell>
        <mxCell id="OIP5oiSbWWPdo0reav5E-64" value="general_objective" style="ellipse;whiteSpace=wrap;html=1;align=center;" vertex="1" parent="1">
          <mxGeometry x="480" y="220" width="120" height="40" as="geometry" />
        </mxCell>
        <mxCell id="OIP5oiSbWWPdo0reav5E-68" style="edgeStyle=orthogonalEdgeStyle;rounded=0;orthogonalLoop=1;jettySize=auto;html=1;entryX=0.952;entryY=0.212;entryDx=0;entryDy=0;entryPerimeter=0;" edge="1" parent="1" source="OIP5oiSbWWPdo0reav5E-147" target="OIP5oiSbWWPdo0reav5E-55">
          <mxGeometry relative="1" as="geometry">
            <mxPoint x="649.085911282685" y="254.15684402117233" as="sourcePoint" />
            <Array as="points">
              <mxPoint x="645" y="250" />
              <mxPoint x="645" y="280" />
              <mxPoint x="575" y="280" />
            </Array>
          </mxGeometry>
        </mxCell>
        <mxCell id="OIP5oiSbWWPdo0reav5E-70" value="gives" style="shape=rhombus;perimeter=rhombusPerimeter;whiteSpace=wrap;html=1;align=center;fillColor=#ffe6cc;strokeColor=#d79b00;" vertex="1" parent="1">
          <mxGeometry x="250" y="330" width="120" height="60" as="geometry" />
        </mxCell>
        <mxCell id="OIP5oiSbWWPdo0reav5E-71" style="edgeStyle=orthogonalEdgeStyle;rounded=0;orthogonalLoop=1;jettySize=auto;html=1;exitX=0;exitY=0.25;exitDx=0;exitDy=0;entryX=0.945;entryY=0.518;entryDx=0;entryDy=0;entryPerimeter=0;" edge="1" parent="1" source="OIP5oiSbWWPdo0reav5E-3" target="OIP5oiSbWWPdo0reav5E-70">
          <mxGeometry relative="1" as="geometry" />
        </mxCell>
        <mxCell id="OIP5oiSbWWPdo0reav5E-108" value="&lt;span style=&quot;font-size: 14px;&quot;&gt;(1,M)&lt;/span&gt;" style="edgeLabel;html=1;align=center;verticalAlign=middle;resizable=0;points=[];" vertex="1" connectable="0" parent="OIP5oiSbWWPdo0reav5E-71">
          <mxGeometry x="-0.3042" relative="1" as="geometry">
            <mxPoint as="offset" />
          </mxGeometry>
        </mxCell>
        <mxCell id="OIP5oiSbWWPdo0reav5E-76" style="edgeStyle=orthogonalEdgeStyle;rounded=0;orthogonalLoop=1;jettySize=auto;html=1;exitX=1;exitY=0.5;exitDx=0;exitDy=0;entryX=0;entryY=0.75;entryDx=0;entryDy=0;" edge="1" parent="1" source="OIP5oiSbWWPdo0reav5E-73" target="OIP5oiSbWWPdo0reav5E-2">
          <mxGeometry relative="1" as="geometry" />
        </mxCell>
        <mxCell id="OIP5oiSbWWPdo0reav5E-93" value="&lt;span style=&quot;font-size: 13px;&quot;&gt;(1,1)&lt;/span&gt;" style="edgeLabel;html=1;align=center;verticalAlign=middle;resizable=0;points=[];" vertex="1" connectable="0" parent="OIP5oiSbWWPdo0reav5E-76">
          <mxGeometry x="0.5305" relative="1" as="geometry">
            <mxPoint as="offset" />
          </mxGeometry>
        </mxCell>
        <mxCell id="OIP5oiSbWWPdo0reav5E-73" value="gets" style="shape=rhombus;perimeter=rhombusPerimeter;whiteSpace=wrap;html=1;align=center;fillColor=#ffe6cc;strokeColor=#d79b00;" vertex="1" parent="1">
          <mxGeometry x="-120" y="615" width="120" height="60" as="geometry" />
        </mxCell>
        <mxCell id="OIP5oiSbWWPdo0reav5E-74" style="edgeStyle=orthogonalEdgeStyle;rounded=0;orthogonalLoop=1;jettySize=auto;html=1;exitX=1;exitY=0.5;exitDx=0;exitDy=0;entryX=0;entryY=0.5;entryDx=0;entryDy=0;" edge="1" parent="1" source="OIP5oiSbWWPdo0reav5E-7" target="OIP5oiSbWWPdo0reav5E-73">
          <mxGeometry relative="1" as="geometry" />
        </mxCell>
        <mxCell id="OIP5oiSbWWPdo0reav5E-92" value="&lt;font style=&quot;font-size: 14px;&quot;&gt;(1,1)&lt;/font&gt;" style="edgeLabel;html=1;align=center;verticalAlign=middle;resizable=0;points=[];" vertex="1" connectable="0" parent="OIP5oiSbWWPdo0reav5E-74">
          <mxGeometry x="-0.6165" y="-3" relative="1" as="geometry">
            <mxPoint as="offset" />
          </mxGeometry>
        </mxCell>
        <mxCell id="OIP5oiSbWWPdo0reav5E-78" value="student_number" style="ellipse;whiteSpace=wrap;html=1;align=center;" vertex="1" parent="1">
          <mxGeometry x="80" y="710" width="100" height="50" as="geometry" />
        </mxCell>
        <mxCell id="OIP5oiSbWWPdo0reav5E-79" style="edgeStyle=orthogonalEdgeStyle;rounded=0;orthogonalLoop=1;jettySize=auto;html=1;exitX=0.5;exitY=0;exitDx=0;exitDy=0;entryX=0.121;entryY=0.993;entryDx=0;entryDy=0;entryPerimeter=0;" edge="1" parent="1" source="OIP5oiSbWWPdo0reav5E-78" target="OIP5oiSbWWPdo0reav5E-2">
          <mxGeometry relative="1" as="geometry" />
        </mxCell>
        <mxCell id="OIP5oiSbWWPdo0reav5E-82" value="comment" style="ellipse;whiteSpace=wrap;html=1;align=center;" vertex="1" parent="1">
          <mxGeometry x="360" y="280" width="100" height="40" as="geometry" />
        </mxCell>
        <mxCell id="OIP5oiSbWWPdo0reav5E-83" style="edgeStyle=orthogonalEdgeStyle;rounded=0;orthogonalLoop=1;jettySize=auto;html=1;exitX=0.5;exitY=1;exitDx=0;exitDy=0;entryX=0;entryY=0;entryDx=0;entryDy=0;" edge="1" parent="1" source="OIP5oiSbWWPdo0reav5E-82" target="OIP5oiSbWWPdo0reav5E-3">
          <mxGeometry relative="1" as="geometry" />
        </mxCell>
        <mxCell id="OIP5oiSbWWPdo0reav5E-85" style="edgeStyle=orthogonalEdgeStyle;rounded=0;orthogonalLoop=1;jettySize=auto;html=1;exitX=1;exitY=0.5;exitDx=0;exitDy=0;" edge="1" parent="1" source="OIP5oiSbWWPdo0reav5E-84">
          <mxGeometry relative="1" as="geometry">
            <mxPoint x="480" y="350" as="targetPoint" />
            <Array as="points">
              <mxPoint x="470" y="240" />
              <mxPoint x="470" y="350" />
            </Array>
          </mxGeometry>
        </mxCell>
        <mxCell id="OIP5oiSbWWPdo0reav5E-84" value="evaluation" style="ellipse;whiteSpace=wrap;html=1;align=center;" vertex="1" parent="1">
          <mxGeometry x="320" y="220" width="100" height="40" as="geometry" />
        </mxCell>
        <mxCell id="OIP5oiSbWWPdo0reav5E-89" style="edgeStyle=orthogonalEdgeStyle;rounded=0;orthogonalLoop=1;jettySize=auto;html=1;exitX=0.5;exitY=0;exitDx=0;exitDy=0;entryX=0.5;entryY=1;entryDx=0;entryDy=0;" edge="1" parent="1" source="OIP5oiSbWWPdo0reav5E-86" target="OIP5oiSbWWPdo0reav5E-1">
          <mxGeometry relative="1" as="geometry" />
        </mxCell>
        <mxCell id="OIP5oiSbWWPdo0reav5E-91" value="&lt;font style=&quot;font-size: 14px;&quot;&gt;(1,1)&lt;/font&gt;" style="edgeLabel;html=1;align=center;verticalAlign=middle;resizable=0;points=[];" vertex="1" connectable="0" parent="OIP5oiSbWWPdo0reav5E-89">
          <mxGeometry x="0.4921" y="1" relative="1" as="geometry">
            <mxPoint as="offset" />
          </mxGeometry>
        </mxCell>
        <mxCell id="OIP5oiSbWWPdo0reav5E-86" value="gets" style="shape=rhombus;perimeter=rhombusPerimeter;whiteSpace=wrap;html=1;align=center;fillColor=#ffe6cc;strokeColor=#d79b00;" vertex="1" parent="1">
          <mxGeometry x="-330" y="540" width="120" height="60" as="geometry" />
        </mxCell>
        <mxCell id="OIP5oiSbWWPdo0reav5E-96" style="edgeStyle=orthogonalEdgeStyle;rounded=0;orthogonalLoop=1;jettySize=auto;html=1;exitX=0.5;exitY=0;exitDx=0;exitDy=0;" edge="1" parent="1" source="OIP5oiSbWWPdo0reav5E-94" target="OIP5oiSbWWPdo0reav5E-4">
          <mxGeometry relative="1" as="geometry" />
        </mxCell>
        <mxCell id="OIP5oiSbWWPdo0reav5E-109" value="&lt;span style=&quot;font-size: 14px;&quot;&gt;(1,M)&lt;/span&gt;" style="edgeLabel;html=1;align=center;verticalAlign=middle;resizable=0;points=[];" vertex="1" connectable="0" parent="OIP5oiSbWWPdo0reav5E-96">
          <mxGeometry x="0.4058" y="-1" relative="1" as="geometry">
            <mxPoint as="offset" />
          </mxGeometry>
        </mxCell>
        <mxCell id="OIP5oiSbWWPdo0reav5E-94" value="teaches" style="shape=rhombus;perimeter=rhombusPerimeter;whiteSpace=wrap;html=1;align=center;" vertex="1" parent="1">
          <mxGeometry x="-300" y="310" width="120" height="60" as="geometry" />
        </mxCell>
        <mxCell id="OIP5oiSbWWPdo0reav5E-103" style="edgeStyle=orthogonalEdgeStyle;rounded=0;orthogonalLoop=1;jettySize=auto;html=1;exitX=0.5;exitY=0;exitDx=0;exitDy=0;" edge="1" parent="1" source="OIP5oiSbWWPdo0reav5E-102" target="OIP5oiSbWWPdo0reav5E-57">
          <mxGeometry relative="1" as="geometry" />
        </mxCell>
        <mxCell id="OIP5oiSbWWPdo0reav5E-102" value="time_submitted" style="ellipse;whiteSpace=wrap;html=1;align=center;" vertex="1" parent="1">
          <mxGeometry x="560" y="615" width="100" height="40" as="geometry" />
        </mxCell>
        <mxCell id="OIP5oiSbWWPdo0reav5E-113" style="edgeStyle=orthogonalEdgeStyle;rounded=0;orthogonalLoop=1;jettySize=auto;html=1;exitX=1;exitY=0.5;exitDx=0;exitDy=0;entryX=0;entryY=0.5;entryDx=0;entryDy=0;" edge="1" parent="1" source="OIP5oiSbWWPdo0reav5E-111" target="OIP5oiSbWWPdo0reav5E-112">
          <mxGeometry relative="1" as="geometry" />
        </mxCell>
        <mxCell id="OIP5oiSbWWPdo0reav5E-120" value="&lt;font style=&quot;font-size: 14px;&quot;&gt;(0,M)&lt;/font&gt;" style="edgeLabel;html=1;align=center;verticalAlign=middle;resizable=0;points=[];" vertex="1" connectable="0" parent="OIP5oiSbWWPdo0reav5E-113">
          <mxGeometry x="-0.6548" y="-1" relative="1" as="geometry">
            <mxPoint as="offset" />
          </mxGeometry>
        </mxCell>
        <mxCell id="OIP5oiSbWWPdo0reav5E-111" value="TOKEN" style="whiteSpace=wrap;html=1;align=center;fillColor=#d5e8d4;strokeColor=#82b366;" vertex="1" parent="1">
          <mxGeometry x="-660" y="520" width="100" height="40" as="geometry" />
        </mxCell>
        <mxCell id="OIP5oiSbWWPdo0reav5E-112" value="uses" style="shape=rhombus;perimeter=rhombusPerimeter;whiteSpace=wrap;html=1;align=center;" vertex="1" parent="1">
          <mxGeometry x="-490" y="560" width="120" height="60" as="geometry" />
        </mxCell>
        <mxCell id="OIP5oiSbWWPdo0reav5E-115" value="&lt;u&gt;id&lt;/u&gt;" style="ellipse;whiteSpace=wrap;html=1;align=center;fillColor=#dae8fc;strokeColor=#6c8ebf;fontStyle=1" vertex="1" parent="1">
          <mxGeometry x="-710" y="590" width="100" height="40" as="geometry" />
        </mxCell>
        <mxCell id="OIP5oiSbWWPdo0reav5E-116" style="edgeStyle=orthogonalEdgeStyle;rounded=0;orthogonalLoop=1;jettySize=auto;html=1;exitX=1;exitY=0.5;exitDx=0;exitDy=0;entryX=0.651;entryY=1.016;entryDx=0;entryDy=0;entryPerimeter=0;" edge="1" parent="1" source="OIP5oiSbWWPdo0reav5E-115" target="OIP5oiSbWWPdo0reav5E-111">
          <mxGeometry relative="1" as="geometry" />
        </mxCell>
        <mxCell id="OIP5oiSbWWPdo0reav5E-123" style="edgeStyle=orthogonalEdgeStyle;rounded=0;orthogonalLoop=1;jettySize=auto;html=1;exitX=1;exitY=0.5;exitDx=0;exitDy=0;entryX=0;entryY=0.5;entryDx=0;entryDy=0;" edge="1" parent="1" source="OIP5oiSbWWPdo0reav5E-122" target="OIP5oiSbWWPdo0reav5E-111">
          <mxGeometry relative="1" as="geometry" />
        </mxCell>
        <mxCell id="OIP5oiSbWWPdo0reav5E-122" value="token_string" style="ellipse;whiteSpace=wrap;html=1;align=center;" vertex="1" parent="1">
          <mxGeometry x="-800" y="520" width="100" height="40" as="geometry" />
        </mxCell>
        <mxCell id="OIP5oiSbWWPdo0reav5E-125" style="edgeStyle=orthogonalEdgeStyle;rounded=0;orthogonalLoop=1;jettySize=auto;html=1;exitX=1;exitY=0.5;exitDx=0;exitDy=0;entryX=0;entryY=0;entryDx=0;entryDy=0;" edge="1" parent="1" source="OIP5oiSbWWPdo0reav5E-124" target="OIP5oiSbWWPdo0reav5E-111">
          <mxGeometry relative="1" as="geometry" />
        </mxCell>
        <mxCell id="OIP5oiSbWWPdo0reav5E-124" value="token_type" style="ellipse;whiteSpace=wrap;html=1;align=center;fontStyle=4;" vertex="1" parent="1">
          <mxGeometry x="-800" y="460" width="100" height="40" as="geometry" />
        </mxCell>
        <mxCell id="OIP5oiSbWWPdo0reav5E-126" value="expired" style="ellipse;whiteSpace=wrap;html=1;align=center;fontStyle=4;" vertex="1" parent="1">
          <mxGeometry x="-650" y="440" width="100" height="40" as="geometry" />
        </mxCell>
        <mxCell id="OIP5oiSbWWPdo0reav5E-127" style="edgeStyle=orthogonalEdgeStyle;rounded=0;orthogonalLoop=1;jettySize=auto;html=1;exitX=0.5;exitY=1;exitDx=0;exitDy=0;entryX=0.603;entryY=0.011;entryDx=0;entryDy=0;entryPerimeter=0;" edge="1" parent="1" source="OIP5oiSbWWPdo0reav5E-126" target="OIP5oiSbWWPdo0reav5E-111">
          <mxGeometry relative="1" as="geometry" />
        </mxCell>
        <mxCell id="OIP5oiSbWWPdo0reav5E-128" value="revoked" style="ellipse;whiteSpace=wrap;html=1;align=center;" vertex="1" parent="1">
          <mxGeometry x="-560" y="470" width="100" height="40" as="geometry" />
        </mxCell>
        <mxCell id="OIP5oiSbWWPdo0reav5E-129" style="edgeStyle=orthogonalEdgeStyle;rounded=0;orthogonalLoop=1;jettySize=auto;html=1;exitX=0;exitY=1;exitDx=0;exitDy=0;entryX=0.843;entryY=-0.075;entryDx=0;entryDy=0;entryPerimeter=0;" edge="1" parent="1" source="OIP5oiSbWWPdo0reav5E-128" target="OIP5oiSbWWPdo0reav5E-111">
          <mxGeometry relative="1" as="geometry" />
        </mxCell>
        <mxCell id="OIP5oiSbWWPdo0reav5E-136" value="time_graded" style="ellipse;whiteSpace=wrap;html=1;align=center;" vertex="1" parent="1">
          <mxGeometry x="330" y="410" width="100" height="40" as="geometry" />
        </mxCell>
        <mxCell id="OIP5oiSbWWPdo0reav5E-137" style="edgeStyle=orthogonalEdgeStyle;rounded=0;orthogonalLoop=1;jettySize=auto;html=1;exitX=0.5;exitY=0;exitDx=0;exitDy=0;entryX=1;entryY=1;entryDx=0;entryDy=0;" edge="1" parent="1" source="OIP5oiSbWWPdo0reav5E-136" target="OIP5oiSbWWPdo0reav5E-70">
          <mxGeometry relative="1" as="geometry" />
        </mxCell>
        <mxCell id="OIP5oiSbWWPdo0reav5E-142" style="edgeStyle=orthogonalEdgeStyle;rounded=0;orthogonalLoop=1;jettySize=auto;html=1;exitX=0;exitY=0;exitDx=0;exitDy=0;entryX=0.75;entryY=1;entryDx=0;entryDy=0;" edge="1" parent="1" source="OIP5oiSbWWPdo0reav5E-140" target="OIP5oiSbWWPdo0reav5E-1">
          <mxGeometry relative="1" as="geometry" />
        </mxCell>
        <mxCell id="OIP5oiSbWWPdo0reav5E-140" value="email" style="ellipse;whiteSpace=wrap;html=1;align=center;" vertex="1" parent="1">
          <mxGeometry x="-210" y="460" width="100" height="40" as="geometry" />
        </mxCell>
        <mxCell id="OIP5oiSbWWPdo0reav5E-144" style="edgeStyle=orthogonalEdgeStyle;rounded=0;orthogonalLoop=1;jettySize=auto;html=1;exitX=1;exitY=0;exitDx=0;exitDy=0;" edge="1" parent="1" source="OIP5oiSbWWPdo0reav5E-143" target="OIP5oiSbWWPdo0reav5E-2">
          <mxGeometry relative="1" as="geometry" />
        </mxCell>
        <mxCell id="OIP5oiSbWWPdo0reav5E-143" value="email" style="ellipse;whiteSpace=wrap;html=1;align=center;" vertex="1" parent="1">
          <mxGeometry y="680" width="100" height="30" as="geometry" />
        </mxCell>
        <mxCell id="OIP5oiSbWWPdo0reav5E-145" value="name" style="ellipse;whiteSpace=wrap;html=1;align=center;" vertex="1" parent="1">
          <mxGeometry x="-270" y="160" width="100" height="40" as="geometry" />
        </mxCell>
        <mxCell id="OIP5oiSbWWPdo0reav5E-146" style="edgeStyle=orthogonalEdgeStyle;rounded=0;orthogonalLoop=1;jettySize=auto;html=1;exitX=0.5;exitY=1;exitDx=0;exitDy=0;entryX=0.203;entryY=-0.043;entryDx=0;entryDy=0;entryPerimeter=0;" edge="1" parent="1" source="OIP5oiSbWWPdo0reav5E-145" target="OIP5oiSbWWPdo0reav5E-4">
          <mxGeometry relative="1" as="geometry" />
        </mxCell>
        <mxCell id="OIP5oiSbWWPdo0reav5E-147" value="specific_objective" style="ellipse;whiteSpace=wrap;html=1;align=center;" vertex="1" parent="1">
          <mxGeometry x="660" y="230" width="100" height="40" as="geometry" />
        </mxCell>
      </root>
    </mxGraphModel>
  </diagram>
</mxfile>
